<svg width="86" height="91" viewBox="0 0 86 91" fill="none" xmlns="http://www.w3.org/2000/svg">
<path d="M19.4609 37.3393V75.5893H22.4609V77.8393H16.4609V37.3393H19.4609ZM33.7109 77.8393H30.7109L30.3359 68.0893H28.1094L27.7109 77.8393H24.7109L26.9609 37.3393H31.4609L33.7109 77.8393ZM29.9609 56.8393L29.2109 38.8393L28.4609 56.8393L28.1094 65.8393H30.3359L29.9609 56.8393ZM50.5391 54.5893C50.5391 55.5268 50.3672 56.2534 50.0234 56.769C49.6797 57.269 49.2266 57.6362 48.6641 57.8705C48.1016 58.1049 47.4609 58.2455 46.7422 58.2924C46.0234 58.3237 45.2891 58.3393 44.5391 58.3393V77.8393H41.5391V37.3393H44.5391C46.0391 37.3393 47.1953 37.4643 48.0078 37.7143C48.8203 37.9643 49.4141 38.2768 49.7891 38.6518C50.1641 39.0268 50.3828 39.433 50.4453 39.8705C50.5078 40.308 50.5391 40.7143 50.5391 41.0893V54.5893ZM47.5391 41.0893C47.5391 40.7143 47.4844 40.4252 47.375 40.2221C47.2812 40.019 47.1172 39.8705 46.8828 39.7768C46.6484 39.683 46.3359 39.6284 45.9453 39.6127C45.5703 39.5971 45.1016 39.5893 44.5391 39.5893V56.0893C44.9141 56.0893 45.2812 56.0815 45.6406 56.0659C46 56.0502 46.3203 55.9955 46.6016 55.9018C46.8828 55.808 47.1094 55.6596 47.2812 55.4565C47.4531 55.2534 47.5391 54.9643 47.5391 54.5893V41.0893ZM61.0391 77.8393H58.0391L57.6641 68.0893H55.4375L55.0391 77.8393H52.0391L54.2891 37.3393H58.7891L61.0391 77.8393ZM57.2891 56.8393L56.5391 38.8393L55.7891 56.8393L55.4375 65.8393H57.6641L57.2891 56.8393ZM69.2891 37.3393L65.5391 75.5893H69.2891V77.8393H62.5391L66.2891 39.5893H62.5391V37.3393H69.2891Z" fill="#FF9307"/>
<path d="M43 1L1 45.5L15.5 60.8631" stroke="#FF9307"/>
<path d="M42.3251 1L84.3251 45.5L68 63.5119" stroke="#FF9307"/>
<path d="M34.5 80.994L43 90L51.5 80.994" stroke="#FF9307"/>
<path d="M30.3735 32.0482L26 30.6566L28.1867 26.8795L26.5964 26.4819L31.9639 16.741L33.9518 19.5241" stroke="#FF9307"/>
<path d="M54.8253 31.8494L59 30.6566L56.6145 26.8795H58.6024L52.8373 16.741L50.8494 19.5241M32.759 33.0422L36.7349 25.6867H34.1506L38.9217 17.1386H36.3373L42.5 7L48.2651 17.1386H46.0783L50.4518 25.488H48.0663L52.241 33.4398L42.5 36.2229L32.759 33.0422Z" stroke="#FF9307"/>
<path d="M42.6988 19.7229L44.0904 21.1145L45.2831 19.7229" stroke="#FF9307"/>
<path d="M38.9217 25.0904L40.3133 26.2831L41.506 25.0904" stroke="#FF9307"/>
<path d="M44.2891 28.6687L45.4819 30.0602L46.8735 28.6687" stroke="#FF9307"/>
<path d="M29.5783 28.4699L30.7711 29.6627L32.1626 28.4699" stroke="#FF9307"/>
<path d="M30.9699 21.9096L32.3615 23.1024L33.753 21.9096" stroke="#FF9307"/>
<path d="M52.0422 23.8976L53.6325 25.4879L54.8253 23.8976" stroke="#FF9307"/>
</svg>
