<svg width="60" height="74" viewBox="0 0 60 74" fill="none" xmlns="http://www.w3.org/2000/svg">
<path d="M6.96094 32.5V70.75H9.96094V73H3.96094V32.5H6.96094ZM21.2109 73H18.2109L17.8359 63.25H15.6094L15.2109 73H12.2109L14.4609 32.5H18.9609L21.2109 73ZM17.4609 52L16.7109 34L15.9609 52L15.6094 61H17.8359L17.4609 52ZM38.0391 49.75C38.0391 50.6875 37.8672 51.4141 37.5234 51.9297C37.1797 52.4297 36.7266 52.7969 36.1641 53.0312C35.6016 53.2656 34.9609 53.4062 34.2422 53.4531C33.5234 53.4844 32.7891 53.5 32.0391 53.5V73H29.0391V32.5H32.0391C33.5391 32.5 34.6953 32.625 35.5078 32.875C36.3203 33.125 36.9141 33.4375 37.2891 33.8125C37.6641 34.1875 37.8828 34.5938 37.9453 35.0312C38.0078 35.4688 38.0391 35.875 38.0391 36.25V49.75ZM35.0391 36.25C35.0391 35.875 34.9844 35.5859 34.875 35.3828C34.7812 35.1797 34.6172 35.0312 34.3828 34.9375C34.1484 34.8438 33.8359 34.7891 33.4453 34.7734C33.0703 34.7578 32.6016 34.75 32.0391 34.75V51.25C32.4141 51.25 32.7812 51.2422 33.1406 51.2266C33.5 51.2109 33.8203 51.1562 34.1016 51.0625C34.3828 50.9688 34.6094 50.8203 34.7812 50.6172C34.9531 50.4141 35.0391 50.125 35.0391 49.75V36.25ZM48.5391 73H45.5391L45.1641 63.25H42.9375L42.5391 73H39.5391L41.7891 32.5H46.2891L48.5391 73ZM44.7891 52L44.0391 34L43.2891 52L42.9375 61H45.1641L44.7891 52ZM56.7891 32.5L53.0391 70.75H56.7891V73H50.0391L53.7891 34.75H50.0391V32.5H56.7891Z" fill="black"/>
<path d="M17.3735 26.0482L13 24.6566L15.1867 20.8795L13.5964 20.4819L18.9639 10.741L20.9518 13.5241" stroke="black"/>
<path d="M41.8253 25.8494L46 24.6566L43.6145 20.8795H45.6024L39.8373 10.741L37.8494 13.5241M19.759 27.0422L23.7349 19.6867H21.1506L25.9217 11.1386H23.3373L29.5 1L35.2651 11.1386H33.0783L37.4518 19.488H35.0663L39.241 27.4398L29.5 30.2229L19.759 27.0422Z" stroke="black"/>
<path d="M29.6988 13.7229L31.0904 15.1145L32.2831 13.7229" stroke="black"/>
<path d="M25.9217 19.0904L27.3133 20.2831L28.506 19.0904" stroke="black"/>
<path d="M31.2892 22.6687L32.4819 24.0603L33.8735 22.6687" stroke="black"/>
<path d="M16.5783 22.4699L17.7711 23.6627L19.1626 22.4699" stroke="black"/>
<path d="M17.9699 15.9096L19.3614 17.1024L20.753 15.9096" stroke="black"/>
<path d="M39.0422 17.8976L40.6325 19.488L41.8253 17.8976" stroke="black"/>
</svg>
