<svg width="149" height="79" viewBox="0 0 149 79" fill="none" xmlns="http://www.w3.org/2000/svg">
<path d="M95.9609 24.5V62.75H98.9609V65H92.9609V24.5H95.9609ZM110.211 65H107.211L106.836 55.25H104.609L104.211 65H101.211L103.461 24.5H107.961L110.211 65ZM106.461 44L105.711 26L104.961 44L104.609 53H106.836L106.461 44ZM127.039 41.75C127.039 42.6875 126.867 43.4141 126.523 43.9297C126.18 44.4297 125.727 44.7969 125.164 45.0312C124.602 45.2656 123.961 45.4062 123.242 45.4531C122.523 45.4844 121.789 45.5 121.039 45.5V65H118.039V24.5H121.039C122.539 24.5 123.695 24.625 124.508 24.875C125.32 25.125 125.914 25.4375 126.289 25.8125C126.664 26.1875 126.883 26.5938 126.945 27.0312C127.008 27.4688 127.039 27.875 127.039 28.25V41.75ZM124.039 28.25C124.039 27.875 123.984 27.5859 123.875 27.3828C123.781 27.1797 123.617 27.0312 123.383 26.9375C123.148 26.8438 122.836 26.7891 122.445 26.7734C122.07 26.7578 121.602 26.75 121.039 26.75V43.25C121.414 43.25 121.781 43.2422 122.141 43.2266C122.5 43.2109 122.82 43.1562 123.102 43.0625C123.383 42.9688 123.609 42.8203 123.781 42.6172C123.953 42.4141 124.039 42.125 124.039 41.75V28.25ZM137.539 65H134.539L134.164 55.25H131.938L131.539 65H128.539L130.789 24.5H135.289L137.539 65ZM133.789 44L133.039 26L132.289 44L131.938 53H134.164L133.789 44ZM145.789 24.5L142.039 62.75H145.789V65H139.039L142.789 26.75H139.039V24.5H145.789Z" fill="black"/>
<path d="M14 66L3 62.5L8.5 53L4.5 52L18 27.5L23 34.5" stroke="black" stroke-width="3"/>
<path d="M75.5 65.5L86 62.5L80 53H85L70.5 27.5L65.5 34.5M20 68.5L30 50H23.5L35.5 28.5H29L44.5 3L59 28.5H53.5L64.5 49.5H58.5L69 69.5L44.5 76.5L20 68.5Z" stroke="black" stroke-width="3"/>
<path d="M45 35L48.5 38.5L51.5 35" stroke="black"/>
<path d="M35.5 48.5L39 51.5L42 48.5" stroke="black"/>
<path d="M49 57.5L52 61L55.5 57.5" stroke="black"/>
<path d="M12 57L15 60L18.5 57" stroke="black"/>
<path d="M15.5 40.5L19 43.5L22.5 40.5" stroke="black"/>
<path d="M68.5 45.5L72.5 49.5L75.5 45.5" stroke="black"/>
</svg>
