<svg width="62" height="73" viewBox="0 0 62 73" fill="none" xmlns="http://www.w3.org/2000/svg">
<path d="M19.8484 23.0408L16 21.8163L17.9242 18.4927L16.5248 18.1429L21.2478 9.57144L22.9971 12.0204" stroke="#FF9307"/>
<path d="M41.3644 22.8659L45.0379 21.8163L42.9388 18.4927H44.6881L39.6152 9.57143L37.8659 12.0204M21.9475 23.9155L25.4461 17.4431H23.172L27.3703 9.92128H25.0962L30.519 1L35.5919 9.92128H33.6677L37.5161 17.2682H35.4169L39.0904 24.2653L30.519 26.7143L21.9475 23.9155Z" stroke="#FF9307"/>
<path d="M7.81808 29.9572V68.2072H10.8181V70.4572H4.81808V29.9572H7.81808ZM22.0681 70.4572H19.0681L18.6931 60.7072H16.4665L16.0681 70.4572H13.0681L15.3181 29.9572H19.8181L22.0681 70.4572ZM18.3181 49.4572L17.5681 31.4572L16.8181 49.4572L16.4665 58.4572H18.6931L18.3181 49.4572ZM38.8962 47.2072C38.8962 48.1447 38.7243 48.8712 38.3806 49.3868C38.0368 49.8868 37.5837 50.254 37.0212 50.4884C36.4587 50.7228 35.8181 50.8634 35.0993 50.9103C34.3806 50.9415 33.6462 50.9572 32.8962 50.9572V70.4572H29.8962V29.9572H32.8962C34.3962 29.9572 35.5525 30.0822 36.365 30.3322C37.1775 30.5822 37.7712 30.8947 38.1462 31.2697C38.5212 31.6447 38.74 32.0509 38.8025 32.4884C38.865 32.9259 38.8962 33.3322 38.8962 33.7072V47.2072ZM35.8962 33.7072C35.8962 33.3322 35.8415 33.0431 35.7321 32.84C35.6384 32.6368 35.4743 32.4884 35.24 32.3947C35.0056 32.3009 34.6931 32.2462 34.3025 32.2306C33.9275 32.215 33.4587 32.2072 32.8962 32.2072V48.7072C33.2712 48.7072 33.6384 48.6993 33.9978 48.6837C34.3571 48.6681 34.6775 48.6134 34.9587 48.5197C35.24 48.4259 35.4665 48.2775 35.6384 48.0743C35.8103 47.8712 35.8962 47.5822 35.8962 47.2072V33.7072ZM49.3962 70.4572H46.3962L46.0212 60.7072H43.7946L43.3962 70.4572H40.3962L42.6462 29.9572H47.1462L49.3962 70.4572ZM45.6462 49.4572L44.8962 31.4572L44.1462 49.4572L43.7946 58.4572H46.0212L45.6462 49.4572ZM57.6462 29.9572L53.8962 68.2072H57.6462V70.4572H50.8962L54.6462 32.2072H50.8962V29.9572H57.6462Z" fill="#FF9307"/>
</svg>
