<svg width="110" height="139" viewBox="0 0 110 139" fill="none" xmlns="http://www.w3.org/2000/svg">
<path d="M25 64L15.1856 60.8772C14.5767 60.6835 14.3032 59.9762 14.6234 59.4233L18.8347 52.1491C19.1679 51.5736 18.857 50.8392 18.2118 50.678L16.7602 50.315C16.1236 50.1559 15.8102 49.437 16.1269 48.8623L28.2335 26.891C28.5888 26.2463 29.4953 26.1934 29.9231 26.7924L34 32.5" stroke="black" stroke-width="3"/>
<path d="M86.5 63.5L95.7163 60.8668C96.3578 60.6835 96.6434 59.9353 96.2871 59.3712L91.9688 52.534C91.5483 51.8681 92.0268 51 92.8143 51H94.281C95.0479 51 95.5294 50.1723 95.1503 49.5057L82.2735 26.8603C81.9125 26.2255 81.0149 26.1791 80.5905 26.7733L76.5 32.5M55.7942 74.4159L78.8178 67.8378C79.4276 67.6635 79.7233 66.9729 79.4285 66.4114L70.269 48.9648C69.9195 48.299 70.4024 47.5 71.1544 47.5H73.8473C74.599 47.5 75.0819 46.7018 74.7331 46.036L65.2669 27.964C64.9181 27.2982 65.401 26.5 66.1527 26.5H68.281C69.0479 26.5 69.5294 25.6723 69.1503 25.0057L56.3406 2.47822C55.9635 1.8152 55.0129 1.80135 54.6167 2.4531L40.9236 24.9806C40.5185 25.647 40.9982 26.5 41.7781 26.5H44.7966C45.56 26.5 46.0419 27.3208 45.6698 27.9874L35.3302 46.5126C34.9581 47.1792 35.44 48 36.2034 48H39.3227C40.0801 48 40.5626 48.8092 40.2024 49.4755L31.5698 65.4458C31.2731 65.9947 31.546 66.6783 32.1391 66.872L55.2091 74.405C55.3987 74.4669 55.6025 74.4707 55.7942 74.4159Z" stroke="black" stroke-width="3"/>
<path d="M48.2109 77.8438L46.6406 83.9844H47.2148C47.4883 83.9766 47.6953 83.9727 47.8359 83.9727C48.0156 83.9727 48.1484 84.1641 48.2344 84.5469C48.25 84.6406 48.2578 84.7188 48.2578 84.7812C48.25 84.9531 48.0508 85.043 47.6602 85.0508C47.2695 85.0508 46.8281 85.0664 46.3359 85.0977L45.8438 86.9023C45.1406 89.3477 44.7891 91.3711 44.7891 92.9727C44.7969 94.582 45.1406 95.6875 45.8203 96.2891C45.9531 96.3828 46.0234 96.4609 46.0312 96.5234C46.0156 96.6016 45.9492 96.6406 45.832 96.6406C45.7148 96.6484 45.5938 96.6133 45.4688 96.5352C44.7969 96.168 44.2969 95.3828 43.9688 94.1797C43.8047 93.5703 43.7227 92.9883 43.7227 92.4336C43.7227 90.9961 44.0625 88.957 44.7422 86.3164L45.0234 85.2031L43.1016 85.4141C42.1719 89.1328 41.6016 91.2539 41.3906 91.7773C41.1797 92.3008 40.9805 92.7344 40.793 93.0781C40.6055 93.4219 40.2969 93.7812 39.8672 94.1562C39.4453 94.5312 39.1406 94.7148 38.9531 94.707C38.7656 94.6992 38.668 94.6602 38.6602 94.5898C38.6602 94.5195 38.707 94.4141 38.8008 94.2734C39.8477 92.6797 40.6953 90.3906 41.3438 87.4062L41.8125 85.4961H41.7773C40.168 85.4961 39.2305 85.4727 38.9648 85.4258C38.707 85.3789 38.5312 85.2812 38.4375 85.1328C38.3438 84.9766 38.293 84.8477 38.2852 84.7461C38.2852 84.6289 38.3594 84.5586 38.5078 84.5352C38.5312 84.5352 38.5469 84.5312 38.5547 84.5234L42.1289 84.207L43.3125 79.4023C43.3438 79.2852 43.3828 79.0938 43.4297 78.8281C43.4844 78.5625 43.5703 78.3828 43.6875 78.2891C43.8047 78.1953 44.0547 78.1484 44.4375 78.1484C44.6641 78.1641 44.7812 78.2695 44.7891 78.4648C44.7891 78.5508 44.7852 78.6172 44.7773 78.6641L43.418 84.1133C44.293 84.0664 44.9336 84.0352 45.3398 84.0195L46.7461 78.5703C46.7773 78.4531 46.8125 78.2617 46.8516 77.9961C46.8984 77.7227 46.9805 77.543 47.0977 77.457C47.2227 77.3633 47.4805 77.3164 47.8711 77.3164C48.0977 77.332 48.2148 77.4453 48.2227 77.6562C48.2227 77.7344 48.2188 77.7969 48.2109 77.8438ZM50.625 83.7734C50.2344 83.8359 49.7305 84.8125 49.1133 86.7031C48.4961 88.5938 48.1875 89.7109 48.1875 90.0547C48.1875 90.3984 48.2188 90.5703 48.2812 90.5703C48.6094 90.5703 49.1211 89.8672 49.8164 88.4609C50.5117 87.0469 50.8594 85.7539 50.8594 84.582C50.8594 84.0508 50.7812 83.7812 50.625 83.7734ZM50.4375 82.3203C50.6562 82.3203 50.8438 82.3828 51 82.5078C51.2734 82.7422 51.4102 83.1953 51.4102 83.8672C51.4102 86.9375 50.8633 89.2383 49.7695 90.7695L49.6055 91.0156C48.9258 92 48.3789 92.4922 47.9648 92.4922C47.457 92.4375 47.1641 92.0664 47.0859 91.3789C47.0859 90.8086 47.3164 89.6523 47.7773 87.9102C48.2461 86.168 48.7812 84.6602 49.3828 83.3867C49.7266 82.6836 50.0781 82.3281 50.4375 82.3203ZM56.1328 82.9414L60.3398 82.8477C60.4258 82.8477 60.5195 82.9258 60.6211 83.082C60.7227 83.2305 60.7773 83.4336 60.7852 83.6914C60.7773 83.8633 60.5547 83.9531 60.1172 83.9609C58.8203 83.9922 57.25 84.1484 55.4062 84.4297C55.2734 84.8125 55.0586 85.3633 54.7617 86.082C53.457 89.2383 52.8047 91.4531 52.8047 92.7266C52.8047 93.3594 52.9258 93.9688 53.168 94.5547C53.5898 95.5391 54.2188 96.0312 55.0547 96.0312C55.7031 96.0312 56.2461 95.8633 56.6836 95.5273C57.1289 95.1992 57.6523 94.6562 58.2539 93.8984C58.4414 93.6562 58.6367 93.5703 58.8398 93.6406C59.0352 93.7266 59.1328 93.8945 59.1328 94.1445C59.1328 94.8633 58.7188 95.4609 57.8906 95.9375C57.0625 96.4219 56.1719 96.6641 55.2188 96.6641C54.2734 96.6641 53.4531 96.3164 52.7578 95.6211C52.0703 94.9258 51.7266 94 51.7266 92.8438C51.7266 92.0703 51.8242 91.2422 52.0195 90.3594C52.2148 89.4766 52.5703 88.3789 53.0859 87.0664C53.6016 85.7461 53.9375 84.8672 54.0938 84.4297C52.4766 84.4297 51.5742 84.4102 51.3867 84.3711C50.8086 84.2461 50.5156 84 50.5078 83.6328C50.5156 83.5156 50.6055 83.4414 50.7773 83.4102L54.5859 83.0938L57.0938 78.875C57.3828 78.3906 57.6445 78.1484 57.8789 78.1484C57.9727 78.1484 58.082 78.1641 58.207 78.1953C58.668 78.2969 58.8984 78.4648 58.8984 78.6992C58.8984 78.9258 58.6641 79.2773 58.1953 79.7539C57.7266 80.2305 57.4375 80.5352 57.3281 80.668C56.9609 81.1211 56.5625 81.8789 56.1328 82.9414ZM60.7852 86.2578C60.9414 86.2344 61.2773 85.8984 61.793 85.25C62.3086 84.6016 62.5664 84.0938 62.5664 83.7266C62.5664 83.6719 62.5469 83.6094 62.5078 83.5391C62.3516 83.6953 62.0234 84.1406 61.5234 84.875C61.0312 85.6094 60.7852 86.0703 60.7852 86.2578ZM65.4492 88.0039C65.8398 87.582 66.0586 87.5078 66.1055 87.7812C66.1055 87.8828 66.043 88.0508 65.918 88.2852C65.5352 88.9961 64.9492 89.75 64.1602 90.5469C62.9102 91.8125 61.8047 92.4453 60.8438 92.4453C60.3906 92.4453 60.0039 92.3164 59.6836 92.0586C59.082 91.5664 58.7812 90.7109 58.7812 89.4922C58.7812 88.7969 58.9922 87.8203 59.4141 86.5625C59.8438 85.2969 60.5 84.1523 61.3828 83.1289C61.7734 82.6289 62.1797 82.3789 62.6016 82.3789C62.8047 82.3789 63.0156 82.4219 63.2344 82.5078C63.75 82.7188 64.0078 83.0586 64.0078 83.5273C64.0078 83.5977 63.9844 83.7109 63.9375 83.8672C63.6172 84.5 63.1016 85.2305 62.3906 86.0586C61.6797 86.8867 60.957 87.5469 60.2227 88.0391C59.9727 88.9453 59.8477 89.6523 59.8477 90.1602C59.8477 90.668 59.8594 90.9922 59.8828 91.1328C59.9531 91.4609 60.2148 91.625 60.668 91.625C61.1211 91.625 61.6445 91.418 62.2383 91.0039C62.832 90.582 63.4648 90.0273 64.1367 89.3398C64.8086 88.6523 65.1875 88.2656 65.2734 88.1797C65.3672 88.0938 65.4258 88.0352 65.4492 88.0039ZM65.2734 92.7266C65.2734 93.3594 65.3984 93.9688 65.6484 94.5547C66.0703 95.5391 66.6953 96.0312 67.5234 96.0312C68.1719 96.0312 68.7148 95.8633 69.1523 95.5273C69.5977 95.1992 70.1211 94.6562 70.7227 93.8984C70.9102 93.6562 71.1055 93.5742 71.3086 93.6523C71.5117 93.7227 71.6133 93.8828 71.6133 94.1328C71.6133 94.8672 71.1758 95.4961 70.3008 96.0195C69.4336 96.543 68.6055 96.8047 67.8164 96.8047C65.4805 96.8047 64.3125 95.4219 64.3125 92.6562C64.3125 91.4453 64.5391 90.1836 64.9922 88.8711L65.1094 88.5312C66.5703 84.3438 67.7031 81.5352 68.5078 80.1055C69.0703 79.0742 69.6797 78.5586 70.3359 78.5586C71.2656 78.5664 71.7383 78.9023 71.7539 79.5664C71.7539 79.9805 71.4766 80.6367 70.9219 81.5352C70.3672 82.4258 69.2539 83.9844 67.582 86.2109C67.1602 86.6875 66.7852 87.2266 66.457 87.8281C65.668 89.3125 65.2734 90.9453 65.2734 92.7266ZM67.4297 84.8984C67.5469 84.8906 68.0859 84.0469 69.0469 82.3672C70.0156 80.6797 70.4961 79.8086 70.4883 79.7539C70.4805 79.6914 70.4492 79.6602 70.3945 79.6602C70.3398 79.6523 70.3047 79.6562 70.2891 79.6719C70.0312 79.8281 69.4844 80.6602 68.6484 82.168C67.8203 83.668 67.4062 84.5586 67.4062 84.8398C67.4062 84.8633 67.4141 84.8828 67.4297 84.8984Z" fill="black"/>
<path d="M30.9609 97.5V135.75H33.9609V138H27.9609V97.5H30.9609ZM45.2109 138H42.2109L41.8359 128.25H39.6094L39.2109 138H36.2109L38.4609 97.5H42.9609L45.2109 138ZM41.4609 117L40.7109 99L39.9609 117L39.6094 126H41.8359L41.4609 117ZM62.0391 114.75C62.0391 115.688 61.8672 116.414 61.5234 116.93C61.1797 117.43 60.7266 117.797 60.1641 118.031C59.6016 118.266 58.9609 118.406 58.2422 118.453C57.5234 118.484 56.7891 118.5 56.0391 118.5V138H53.0391V97.5H56.0391C57.5391 97.5 58.6953 97.625 59.5078 97.875C60.3203 98.125 60.9141 98.4375 61.2891 98.8125C61.6641 99.1875 61.8828 99.5938 61.9453 100.031C62.0078 100.469 62.0391 100.875 62.0391 101.25V114.75ZM59.0391 101.25C59.0391 100.875 58.9844 100.586 58.875 100.383C58.7812 100.18 58.6172 100.031 58.3828 99.9375C58.1484 99.8438 57.8359 99.7891 57.4453 99.7734C57.0703 99.7578 56.6016 99.75 56.0391 99.75V116.25C56.4141 116.25 56.7812 116.242 57.1406 116.227C57.5 116.211 57.8203 116.156 58.1016 116.062C58.3828 115.969 58.6094 115.82 58.7812 115.617C58.9531 115.414 59.0391 115.125 59.0391 114.75V101.25ZM72.5391 138H69.5391L69.1641 128.25H66.9375L66.5391 138H63.5391L65.7891 97.5H70.2891L72.5391 138ZM68.7891 117L68.0391 99L67.2891 117L66.9375 126H69.1641L68.7891 117ZM80.7891 97.5L77.0391 135.75H80.7891V138H74.0391L77.7891 99.75H74.0391V97.5H80.7891Z" fill="black"/>
<path d="M17 41H1V121H27" stroke="black"/>
<path d="M93.6154 41H109V121H79.5" stroke="black"/>
</svg>
