<svg width="60" height="65" viewBox="0 0 60 65" fill="none" xmlns="http://www.w3.org/2000/svg">
<path d="M24.375 12.5V50.75H27.375V53H21.375V12.5H24.375ZM39.375 29.75C39.375 30.6875 39.2031 31.4141 38.8594 31.9297C38.5156 32.4297 38.0625 32.7969 37.5 33.0312C36.9375 33.2656 36.2969 33.4062 35.5781 33.4531C34.8594 33.4844 34.125 33.5 33.375 33.5V53H30.375V12.5H33.375C34.875 12.5 36.0312 12.625 36.8438 12.875C37.6562 13.125 38.25 13.4375 38.625 13.8125C39 14.1875 39.2188 14.5937 39.2812 15.0312C39.3438 15.4688 39.375 15.875 39.375 16.25V29.75ZM36.375 16.25C36.375 15.875 36.3203 15.5859 36.2109 15.3828C36.1172 15.1797 35.9531 15.0312 35.7188 14.9375C35.4844 14.8438 35.1719 14.7891 34.7812 14.7734C34.4062 14.7578 33.9375 14.75 33.375 14.75V31.25C33.75 31.25 34.1172 31.2422 34.4766 31.2266C34.8359 31.2109 35.1562 31.1562 35.4375 31.0625C35.7188 30.9688 35.9453 30.8203 36.1172 30.6172C36.2891 30.4141 36.375 30.125 36.375 29.75V16.25Z" fill="#FF9307"/>
</svg>
